# xmcd
#
# Track frame offsets:
#	183
#	16948
#	26520
#	38915
#	54673
#	64573
#	81540
#	96413
#	108203
#	128975
#	142848
#	152473
#	169723
#	180088
#	190028
#	205428
#
# Disc length: 2901 seconds
#
# Revision: 0
# Processed by: cddbd v1.5.2PL0 Copyright (c) Steve Scherf et al.
# Submitted via: EZCDAudioConverter 6.0.0.1
#
DISCID=ca0b5310
DTITLE=Buna Not Dorma Bain
DYEAR=1991
DGENRE=
TTITLE0=Vereinigte Appenzeller Männerchöre - Schweizerpsalm
TTITLE1=La Chanson de Fribourg avec orchestre - La Youtse du Lac Noir
TTITLE2=Jodler-Doppelquartett Pontonierfahrverein Worblaufen - Wenn d'Schneeba
TTITLE2=lle blüejet
TTITLE3=Talverein Albula - Pumer Rumantsch
TTITLE4=Gemischter Chor Hegnau - Hirtechnab
TTITLE5=Hobby-Sänger Appenzell - Die alten Strassen noch
TTITLE6=Männerchor Aefligen - Wanderschaft
TTITLE7=Oberwalliser Volksliederchor - Abschied vom Gantertal
TTITLE8=Vereinigte Appenzeller Männerchöre AR/AI - Appenzeller Landsgemeinde-L
TTITLE8=ied "Ode and Gott"
TTITLE9=Les Armaillies de la Gruyère - Le Vieux Châlet
TTITLE10=Sängerbund Bümpliz - Es Bürebüebli mah-n-i nid
TTITLE11=Sonnenberg Sängerquintett - Das Elternhaus
TTITLE12=Cor dals scolars da Sent - Chare Lingua da la Mamma
TTITLE13=Männerchor Oberhofen - Im schönsten Wiesengrunde
TTITLE14=Aarburger Vokalisten - Luegit vo Bergen und Tal
TTITLE15=Sängerbund Bümpliz - Dorma Bain
EXTD=
EXTT0=
EXTT1=
EXTT2=
EXTT3=
EXTT4=
EXTT5=
EXTT6=
EXTT7=
EXTT8=
EXTT9=
EXTT10=
EXTT11=
EXTT12=
EXTT13=
EXTT14=
EXTT15=
PLAYORDER=
